<?xml version="1.0" encoding="UTF-8" standalone="no"?>
<!-- Created with Inkscape (http://www.inkscape.org/) -->
<svg
   xmlns:svg="http://www.w3.org/2000/svg"
   xmlns="http://www.w3.org/2000/svg"
   version="1.0"
   width="549.2074"
   height="197.77885"
   id="svg3140">
  <defs
     id="defs3142" />
  <g
     transform="translate(114.60371,-369.18704)"
     id="layer1">
    <path
       d="M 70.213668,442.65488 C 64.528119,466.74823 42.905198,484.67443 17.032607,484.67443 C -13.143163,484.67443 -37.633385,460.20204 -37.633385,430.0129 C -37.633385,399.80591 -13.143163,375.33798 17.032607,375.33798 C 38.2319,375.33798 56.612944,387.39581 65.696444,405.0277 C 67.399879,408.7378 68.514692,412.98301 68.514692,418.22263 C 68.514692,437.55795 50.343233,445.82541 42.53508,445.82541 C 40.836104,445.82541 40.198431,444.89343 40.198431,443.4843 C 40.198431,442.07518 40.836104,439.89906 41.313244,438.17779 L 49.866093,400.30535 L 36.79602,400.30535 L 34.936511,407.78352 C 30.526309,401.23287 24.310109,397.79479 16.818563,397.79479 C -0.92480787,397.79479 -15.265768,414.78454 -15.265768,435.38184 C -15.265768,450.50763 -4.0596633,461.11173 8.9033875,461.11173 C 15.28012,461.11173 20.751625,457.36596 24.631176,452.99143 C 25.108316,458.46293 28.987867,461.11173 33.344558,461.11173 C 40.300994,461.11173 58.896082,455.8944 70.213668,442.65488 z M 29.946606,425.56256 C 29.946606,435.38184 22.611134,445.82541 12.622405,445.82541 C 5.2913919,445.82541 0.93916022,440.3762 0.93916022,433.04073 C 0.93916022,423.6763 8.1096403,413.09003 18.414976,413.09003 C 25.429382,413.09003 29.946606,418.22263 29.946606,425.56256 z M 105.6469,537.96251 L 101.98139,555.5721 C 96.670421,556.9411 89.178874,557.95781 82.962675,557.95781 C 56.822529,557.95781 41.843895,542.49757 41.843895,520.18347 C 41.843895,493.22728 62.561588,467.76494 93.004914,467.76494 C 106.49862,467.76494 114.84188,469.37919 119.67125,470.9756 L 116.38032,486.55623 C 109.89657,484.40687 103.04715,483.80041 96.349355,483.80041 C 74.62387,483.80041 64.158001,505.43225 64.158001,520.76317 C 64.158001,535.1844 73.348523,541.92233 86.311574,541.92233 C 93.589076,541.92233 100.17539,540.49091 105.6469,537.96251 z M 181.77528,399.30647 L 203.98682,399.30647 L 164.24595,467.84966 L 162.01633,471.53747 C 155.85364,482.2263 148.99976,489.31205 135.61308,489.31205 C 130.40468,489.31205 126.36905,488.69222 123.07366,487.8628 L 126.31554,472.3223 C 128.28207,472.86187 130.5117,473.27658 133.16941,473.27658 C 139.11806,473.27658 142.30642,469.00907 145.38777,463.28785 L 147.6174,459.60004 L 134.28423,399.30647 L 155.53703,399.30647 L 161.00853,437.53566 L 181.77528,399.30647 z M 341.80006,496.02769 L 353.75086,496.02769 L 356.67167,483.01113 L 378.71822,477.08924 L 374.51761,496.02769 L 388.97451,496.02769 L 386.36584,510.67634 L 371.17763,510.67634 L 367.56117,527.51894 C 366.65594,532.03616 365.80868,535.064 365.80868,537.96251 C 365.80868,542.04273 368.51991,544.71828 372.66256,544.71828 C 374.89218,544.71828 377.22883,543.7863 379.40941,542.97025 L 377.07276,556.7984 C 372.66256,557.47621 368.25235,557.95781 364.10971,557.95781 C 353.37628,557.95781 344.93046,552.73602 344.93046,540.05836 C 344.93046,537.04836 345.35409,534.02499 346.78997,527.62596 L 350.40196,510.67634 L 339.24491,510.67634 L 341.80006,496.02769 z M 320.38672,470.81061 L 341.52805,470.81061 L 338.28617,486.14152 L 317.14039,486.14152 L 320.38672,470.81061 z M 315.01778,496.02769 L 336.16356,496.02769 L 323.62414,556.56652 L 302.48282,556.56652 L 315.01778,496.02769 z M 274.53668,556.56652 L 276.1866,546.91223 C 270.60807,553.64571 265.61371,557.95781 253.97506,557.95781 C 240.96296,557.95781 231.45583,546.56441 231.45583,532.96815 C 231.45583,513.09771 241.4401,494.6364 262.10428,494.6364 C 272.67717,494.6364 280.00818,499.27848 283.14304,505.78454 L 290.68809,469.42378 L 311.24525,469.42378 L 294.99127,547.49194 C 294.30455,551.09947 293.92551,554.12285 293.71593,556.56652 L 274.53668,556.56652 z M 263.06302,541.92233 C 272.94472,541.92233 278.83986,531.00162 278.83986,522.97942 C 278.83986,516.93713 275.81202,510.67634 268.85113,510.67634 C 258.96942,510.67634 253.07429,520.0809 253.07429,529.48547 C 253.07429,536.92796 256.41873,541.92233 263.06302,541.92233 z M 217.64106,539.82648 L 214.98334,554.57769 C 207.65233,556.7984 199.84418,557.95781 193.83756,557.95781 C 173.59701,557.95781 162.70751,545.52541 162.70751,530.29705 C 162.70751,516.24595 172.00505,494.6364 198.93895,494.6364 C 214.87632,494.6364 226.83158,502.65414 226.83158,521.01289 C 226.83158,523.43872 226.1404,528.78091 225.28868,532.38844 L 182.41741,532.38844 C 182.68497,538.8945 185.92239,544.01372 198.7249,544.01372 C 204.30343,544.01372 211.84849,542.62243 217.64106,539.82648 z M 183.74627,520.53575 L 209.40482,520.53575 C 209.40482,514.03416 206.84966,508.58049 199.14853,508.58049 C 190.11854,508.58049 185.2312,514.73872 183.74627,520.53575 z M 139.96978,496.02769 L 137.63313,508.46009 C 141.24512,501.36987 147.99197,494.6364 156.59833,494.6364 C 159.35861,494.6364 162.654,494.98868 165.41428,496.14809 L 160.68747,514.6094 C 157.9807,512.51801 154.94841,512.06317 151.01981,512.06317 C 142.1994,512.06317 136.94194,519.72862 135.45255,528.67835 L 129.50391,556.56652 L 108.62568,556.56652 L 121.37469,496.02769 L 139.96978,496.02769 z M 76.483379,443.79645 C 81.847861,446.1331 87.640432,447.2925 93.428543,447.2925 C 96.830954,447.2925 105.16976,446.94468 105.16976,441.95032 C 105.16976,433.34842 80.202397,437.76308 80.202397,417.77224 C 80.202397,403.59628 96.723932,397.90181 110.74829,397.90181 C 116.0102,397.90181 123.34122,399.07905 130.88182,401.50489 L 126.47161,415.22155 C 121.10713,413.0053 116.0102,411.8459 109.74049,411.8459 C 105.06274,411.8459 99.965809,412.90274 99.965809,417.08552 C 99.965809,423.81899 126.1015,423.36415 126.1015,438.57466 C 126.1015,453.5533 113.45951,460.99133 97.731723,461.23659 C 88.594712,461.34361 78.820028,459.95233 72.287221,458.08836 L 76.483379,443.79645 z M -51.871783,443.10972 L -54.529498,457.86094 C -61.856052,460.07718 -69.615153,461.23659 -75.67082,461.23659 C -95.857862,461.23659 -106.80533,448.80865 -106.80533,433.5803 C -106.80533,419.53365 -97.507786,397.90181 -70.573893,397.90181 C -54.632061,397.90181 -42.68126,405.91955 -42.68126,424.27384 C -42.68126,426.72197 -43.367986,432.06415 -44.166192,435.67169 L -87.041917,435.67169 C -86.827873,442.17774 -83.585996,447.2925 -70.783478,447.2925 C -65.204951,447.2925 -57.664353,445.88338 -51.871783,443.10972 z M -85.766571,423.81899 L -60.103565,423.81899 C -60.103565,417.31294 -62.654258,411.8459 -70.306338,411.8459 C -79.389838,411.8459 -84.27718,418.02196 -85.766571,423.81899 z M 403.41803,461.92332 L 410.2719,461.92332 C 414.3655,461.92332 416.38554,463.55986 416.38554,466.93552 C 416.38554,469.79836 414.57954,471.86745 411.76129,471.86745 L 416.80917,479.74249 L 413.78134,479.74249 L 408.78697,471.86745 L 406.3433,471.86745 L 406.3433,479.74249 L 403.41803,479.74249 L 403.41803,461.92332 z M 406.3433,469.58877 L 409.79476,469.58877 C 412.02885,469.58877 413.46027,469.13393 413.46027,466.81512 C 413.46027,464.7817 411.65427,464.20199 409.79476,464.20199 L 406.3433,464.20199 L 406.3433,469.58877 z M 409.26857,455.64469 C 417.66089,455.64469 424.46125,462.45843 424.46125,470.85074 C 424.46125,479.24306 417.66089,486.06126 409.26857,486.06126 C 400.8718,486.06126 394.01792,479.24306 394.01792,470.85074 C 394.01792,462.45843 400.8718,455.64469 409.26857,455.64469 z M 409.26857,483.78258 C 416.27852,483.78258 421.53598,478.14608 421.53598,470.85074 C 421.53598,463.55986 416.27852,457.92337 409.26857,457.92337 C 402.20065,457.92337 396.93873,463.55986 396.93873,470.85074 C 396.93873,478.14608 402.20065,483.78258 409.26857,483.78258"
       id="path33"
       style="fill:#1b62b7;fill-opacity:1;fill-rule:nonzero;stroke:none" />
  </g>
</svg>
