<?xml version="1.0" encoding="UTF-8"?>
<!-- Generator: Adobe Illustrator 23.0.3, SVG Export Plug-In . SVG Version: 6.00 Build 0)  -->
<svg version="1.1" id="Layer_1" xmlns="http://www.w3.org/2000/svg" xmlns:xlink="http://www.w3.org/1999/xlink" x="0px" y="0px" viewBox="0 0 300 82" style="enable-background:new 0 0 300 82;" xml:space="preserve">
<style type="text/css">
	.st0{fill:#FFFFFF;}
</style>
<g id="Group_1116" transform="translate(0)">
	<g id="Group_1109" transform="translate(41 10.163)">
		<path id="Path_3024" class="st0" d="M0.1,0C0.1,0,0.1,0,0.1,0C0,0.1,0.1,0.2,0.1,0.2l0,0C4,0.8,7.7,1.9,11.3,3.6    c1.7,0.8,3.3,1.8,4.9,2.9c1.5,1.1,3,2.3,4.3,3.6c1.3,1.3,2.6,2.8,3.7,4.3c1.1,1.5,2.1,3.2,2.9,4.9c1.7,3.5,2.9,7.3,3.5,11.1l0,0    c0,0,0,0.1,0.1,0.1c0.1,0,0.1,0,0.1-0.1C30.7,13.7,17.2,0.1,0.4,0c0,0-0.1,0-0.1,0L0.1,0L0.1,0z"/>
	</g>
	<g id="Group_1110" transform="translate(40.986 5.113)">
		<path id="Path_3025" class="st0" d="M0.1,0C0.1,0,0,0,0.1,0C0,0.1,0.1,0.2,0.1,0.2h0c0.6,0.1,1.2,0.2,1.7,0.3    C2.4,0.6,3,0.6,3.6,0.8C4.7,1,5.8,1.3,6.9,1.6C9,2.2,11.2,3,13.2,4c2,1,3.9,2.1,5.8,3.4c3.6,2.6,6.8,5.7,9.4,9.3    c1.3,1.8,2.4,3.7,3.4,5.7c1,2,1.8,4.1,2.4,6.3c0.3,1.1,0.6,2.2,0.9,3.3c0.1,0.6,0.2,1.1,0.3,1.7c0.1,0.6,0.2,1.1,0.3,1.7v0    c0,0,0,0.1,0.1,0.1c0.1,0,0.1,0,0.1-0.1C35.8,15.9,20,0.1,0.5,0C0.5,0,0.4,0,0.3,0H0.1"/>
	</g>
	<g id="Group_1111" transform="translate(40.979)">
		<path id="Path_3026" class="st0" d="M0.1,0C0.1,0,0,0,0.1,0C0,0.1,0.1,0.2,0.1,0.2h0c0.7,0.1,1.3,0.2,2,0.3s1.3,0.2,2,0.3    C5.4,1,6.6,1.3,7.9,1.7c2.5,0.7,4.9,1.6,7.3,2.7c2.3,1.1,4.5,2.4,6.6,3.8c2.1,1.4,4.1,3.1,5.9,4.9c1.8,1.8,3.5,3.7,4.9,5.8    c1.5,2.1,2.8,4.3,3.9,6.6c1.1,2.3,2,4.8,2.7,7.3c0.4,1.3,0.7,2.5,0.9,3.8c0.1,0.6,0.2,1.3,0.3,1.9s0.2,1.3,0.3,2v0    c0,0,0,0.1,0.1,0.1c0.1,0,0.1,0,0.1-0.1c0,0,0,0,0,0C40.9,18.2,22.8,0,0.5,0c0,0-0.1,0-0.1,0H0.1"/>
	</g>
	<g id="Group_1112" transform="translate(10.163 41.141)">
		<path id="Path_3027" class="st0" d="M0,0.1C0,16.9,13.5,30.5,30.2,30.5c0.1,0,0.2,0,0.3,0c0,0,0.1,0,0.1-0.1c0,0,0-0.1-0.1-0.1    l0,0c-3.9-0.6-7.6-1.7-11.1-3.4c-1.7-0.8-3.3-1.8-4.9-2.9c-1.5-1.1-3-2.3-4.3-3.6c-1.3-1.3-2.6-2.8-3.7-4.3    c-1.1-1.5-2.1-3.2-2.9-4.9C2,7.7,0.8,4,0.2,0.1v0c0,0,0-0.1-0.1-0.1C0.1,0,0,0.1,0,0.1C0,0.1,0,0.1,0,0.1"/>
	</g>
	<g id="Group_1113" transform="translate(5.106 41.148)">
		<path id="Path_3028" class="st0" d="M0,0.1c0,19.5,15.7,35.4,35.3,35.5c0.1,0,0.2,0,0.3,0c0,0,0.1,0,0.1-0.1c0,0,0-0.1-0.1-0.1h0    c-0.6-0.1-1.2-0.2-1.7-0.3c-0.6-0.1-1.1-0.2-1.7-0.3c-1.1-0.2-2.2-0.5-3.3-0.8c-2.2-0.6-4.3-1.4-6.3-2.4c-2-1-3.9-2.1-5.8-3.4    C15,27,13.3,25.6,11.7,24c-1.6-1.5-3-3.2-4.3-5.1c-1.3-1.8-2.4-3.7-3.4-5.7c-1-2-1.8-4.1-2.4-6.3C1.3,5.8,1,4.7,0.8,3.6    C0.7,3,0.6,2.4,0.5,1.9S0.3,0.7,0.2,0.1v0C0.2,0.1,0.1,0,0,0.1C0.1,0,0,0.1,0,0.1C0,0.1,0,0.1,0,0.1"/>
	</g>
	<g id="Group_1114" transform="translate(0 41.155)">
		<path id="Path_3029" class="st0" d="M0,0.1c0,22.3,18,40.5,40.4,40.6c0.1,0,0.2,0,0.3,0c0.1,0,0.1,0,0.1-0.1c0,0,0-0.1-0.1-0.1h0    c-0.7-0.1-1.3-0.2-2-0.3s-1.3-0.2-2-0.3c-1.3-0.2-2.6-0.5-3.8-0.9c-2.5-0.7-4.9-1.6-7.3-2.7c-2.3-1.1-4.5-2.4-6.6-3.8    c-2.1-1.4-4.1-3.1-5.9-4.9c-1.8-1.8-3.5-3.7-4.9-5.8c-1.5-2.1-2.8-4.3-3.9-6.6c-1.1-2.3-2-4.8-2.7-7.3C1.4,6.6,1,5.3,0.8,4.1    c-0.1-0.6-0.2-1.3-0.3-2s-0.2-1.3-0.3-2v0c0,0,0-0.1-0.1-0.1C0,0,0,0.1,0,0.1"/>
	</g>
	<path id="Path_3030" class="st0" d="M107.7,52.5l-10.8-14c-1-1.3-1.7-2.2-2.4-3.3h-0.1c0.1,0.8,0.1,2.1,0.1,3.2v14.1h-4.4V28.6h4.5   l10.4,13.5c0.9,1.1,1.6,2.2,2.4,3.3h0.1c-0.1-1.1-0.1-2.4-0.1-3.5V28.6h4.4v23.9H107.7z"/>
	<path id="Path_3031" class="st0" d="M128.8,50.4c-3.4,3.2-8.6,3.3-12.1,0.3c-1.8-1.8-2.8-4.2-2.7-6.7c-0.1-2.5,0.8-4.8,2.5-6.6   c1.6-1.6,3.8-2.5,6.1-2.4c2.4-0.1,4.6,0.8,6.3,2.5c1.6,1.8,2.4,4.1,2.3,6.5C131.3,46.3,130.4,48.7,128.8,50.4 M122.5,38.4   c-2.8,0-4.1,2.3-4.1,5.5c0,3.3,1.6,5.6,4.2,5.6c2.7,0,4.1-2.4,4.1-5.6C126.7,40.6,125.2,38.4,122.5,38.4"/>
	<path id="Path_3032" class="st0" d="M155.1,52.5V42.1c0-1.9-0.4-3.4-2.5-3.4c-1.5,0.1-3,0.7-4.1,1.7c0,0.2,0.1,0.4,0,0.6v11.5h-4.4   V42.2c0-1.9-0.4-3.5-2.5-3.5c-1.5,0.1-3,0.7-4.1,1.7v12.1h-4.4V35.4h3.7l0.4,1.9c1.6-1.4,3.7-2.2,5.8-2.3c1.9-0.1,3.6,0.9,4.5,2.6   c1.7-1.5,3.8-2.5,6.1-2.6c2.9,0,5.7,1.4,5.7,5.9v11.6L155.1,52.5L155.1,52.5z"/>
	<path id="Path_3033" class="st0" d="M172.9,52.5l-0.7-1.5c-1.3,1.2-3.1,1.9-5,1.9c-2.9,0.2-5.5-2.1-5.6-5c0-0.2,0-0.3,0-0.5   c0-3.6,2.8-5.5,7.2-5.6l3.1-0.1v-0.4c0-2.1-1.5-2.9-3.4-2.9c-1.5,0-3,0.5-4.3,1.3l-1.4-2.7c2-1.3,4.3-2,6.7-1.9   c4.2,0,6.8,1.7,6.8,6.2V48c-0.1,1.5,0,3,0.3,4.5L172.9,52.5L172.9,52.5z M171.8,44.7l-2.5,0.1c-2.4,0.1-3.4,0.9-3.4,2.3   c0,1.4,1,2.4,2.8,2.4c1.1,0,2.2-0.4,3.1-1.1L171.8,44.7z"/>
	<path id="Path_3034" class="st0" d="M188,52.9c-5.1,0-9.3-3-9.3-8.8c0-5.3,4-9.1,9.5-9.1c0.7,0,1.5,0,2.2,0.1v-8.3h4.4v24.7   C192.6,52.5,190.3,53,188,52.9 M190.3,38.7c-0.7-0.2-1.3-0.3-2-0.3c-2.8-0.1-5.2,2-5.3,4.8c0,0.2,0,0.4,0,0.6   c-0.2,2.8,2,5.3,4.8,5.4c0.2,0,0.4,0,0.6,0c0.7,0,1.3-0.1,2-0.3L190.3,38.7L190.3,38.7z"/>
	<path id="Path_3035" class="st0" d="M212.5,52.5h-7V28.6h7.3c8.7,0,13.2,4.8,13.2,11.8C226.1,47.5,221,52.5,212.5,52.5 M212.7,32.3   h-2.8v16.5h2.8c6.3,0,8.6-4,8.6-8.4C221.4,35.7,218.5,32.3,212.7,32.3"/>
	<rect id="Rectangle_770" x="228.9" y="35.4" class="st0" width="4.4" height="17.2"/>
	<path id="Path_3036" class="st0" d="M242.7,61.1c-5.2,0-8.2-2.3-8.2-5.1c0-2,1.4-3.3,3.1-4.1c-0.7-0.5-1.2-1.3-1.2-2.1   c0.1-1.4,1-2.6,2.2-3.2c-1.9-1.1-3-3.1-3-5.3c0-3.3,2.5-6.4,7.1-6.4c1.1,0,2.3,0.2,3.3,0.8c0.1,0.1,0.3,0.1,0.4-0.1c0,0,0,0,0,0   c1-0.9,2.5-1.6,5.4-1.3l-0.9,3.2c-0.8-0.2-1.6-0.2-2.4,0c1.1,1.2,1.7,2.7,1.6,4.3c0,3.7-3.2,6.2-7,6.2c-0.8,0-1.6-0.1-2.3-0.3   c-0.3,0.4-0.4,0.9-0.4,1.4c0,2.6,11.7,0.1,11.7,6.4C252.2,58.4,249.2,61.1,242.7,61.1 M239.8,53.1c-0.8,0.4-1.4,1.3-1.5,2.2   c0,1.4,1.8,2.7,4.8,2.7c2.5,0,4.4-0.8,4.4-2.1C247.5,53.7,241.7,53.9,239.8,53.1 M242.8,38.3c-1.5-0.1-2.8,1.1-2.9,2.6   c0,0.1,0,0.2,0,0.4c-0.1,1.7,1.1,3.2,2.8,3.3c0.1,0,0.2,0,0.3,0c1.6,0.1,3-1.1,3.1-2.7c0-0.1,0-0.3,0-0.4c0-1.7-1.4-3.2-3.1-3.2   C242.9,38.3,242.8,38.3,242.8,38.3"/>
	<rect id="Rectangle_771" x="254" y="35.4" class="st0" width="4.4" height="17.2"/>
	<path id="Path_3037" class="st0" d="M268.3,52.9c-3.3,0-4.5-1.7-4.5-4V38.6h-3v-3.3h3v-4l4.4-1.3v5.3h5.3l-1.3,3.3h-4.1v8.8   c0,1.3,0.5,2,1.6,2c1-0.1,2-0.3,2.9-0.8l1.2,2.8C272.2,52.4,270.3,52.9,268.3,52.9"/>
	<path id="Path_3038" class="st0" d="M286.4,52.5l-0.7-1.5c-1.4,1.2-3.1,1.9-5,1.9c-2.9,0.2-5.5-2.1-5.6-5c0-0.2,0-0.3,0-0.5   c0-3.6,2.8-5.5,7.2-5.6l3-0.1v-0.4c0-2.1-1.5-2.9-3.4-2.9c-1.5,0-3,0.5-4.3,1.3l-1.4-2.7c2-1.3,4.3-2,6.7-1.9   c4.2,0,6.8,1.7,6.8,6.2V48c-0.1,1.5,0,3,0.3,4.5L286.4,52.5L286.4,52.5z M285.3,44.7l-2.5,0.1c-2.4,0.1-3.4,0.9-3.4,2.3   c0,1.4,1,2.4,2.8,2.4c1.1,0,2.2-0.4,3.1-1.1L285.3,44.7z"/>
	<path id="Path_3039" class="st0" d="M296.6,52.9c-2.9,0-4-1.6-4-3.8V26.9h4.4v20.4c0,1.3,0.3,1.8,1.2,1.8c0.4,0,0.9-0.1,1.3-0.2   L300,52C299,52.6,297.8,52.9,296.6,52.9"/>
	<path id="Path_3040" class="st0" d="M231.1,32.7c-1.5-0.1-2.6-1.3-2.5-2.7c0.1-1.5,1.3-2.6,2.7-2.5c1.4,0,2.5,1.2,2.5,2.6   C233.8,31.6,232.5,32.7,231.1,32.7C231.1,32.7,231.1,32.7,231.1,32.7"/>
	<path id="Path_3041" class="st0" d="M256.2,32.7c-1.5-0.1-2.6-1.3-2.5-2.7c0.1-1.5,1.3-2.6,2.7-2.5c1.4,0.1,2.5,1.2,2.5,2.6   C258.9,31.6,257.7,32.7,256.2,32.7C256.2,32.7,256.2,32.7,256.2,32.7"/>
	<g id="Group_1115" transform="translate(15.389 15.396)">
		<path id="Path_3042" class="st0" d="M28.8,0.2c-14-1.8-26.8,8-28.6,22s8,26.8,22,28.6c14,1.8,26.8-8,28.6-22    C52.6,14.8,42.8,2,28.8,0.2z M32.7,37H26L15.6,23.6c-1-1.3-1.6-2.2-2.3-3.1h-0.1c0.1,0.8,0.1,2,0.1,3.1V37H9.1V14.1h4.3l10,12.9    c0.8,1,1.6,2.1,2.3,3.2h0.1c-0.1-1-0.1-2.3-0.1-3.3V14.1H33c8.3,0,12.7,4.6,12.7,11.3C45.7,32.2,40.8,37,32.7,37z"/>
		<path id="Path_3043" class="st0" d="M32.9,17.6h-3v15.9h3.1c6,0,8.3-3.8,8.3-8C41.2,20.8,38.5,17.6,32.9,17.6z"/>
	</g>
</g>
</svg>